<?xml version="1.0" encoding="UTF-8"?>
<svg xmlns="http://www.w3.org/2000/svg" xmlns:xlink="http://www.w3.org/1999/xlink" width="512" height="512" viewBox="0 0 56 59" version="1.1"><!-- Generator: Sketch 51.3 (57544) - http://www.bohemiancoding.com/sketch --><title>032 - Whiteboard</title><desc>Created with Sketch.</desc><defs/><g id="Page-1" stroke="none" stroke-width="1" fill="none" fill-rule="evenodd"><g id="032---Whiteboard" transform="translate(-1.000000, 0.000000)" fill-rule="nonzero"><path d="M52.723,59 L50.793,59 C50.3284229,59.0001574 49.9249236,58.6803407 49.819,58.228 L48.311,51.772 C48.2050764,51.3196593 47.8015771,50.9998426 47.337,51 L32,51 C31.4477153,51 31,51.4477153 31,52 L31,58 C31,58.5522847 30.5522847,59 30,59 L28,59 C27.4477153,59 27,58.5522847 27,58 L27,52 C27,51.4477153 26.5522847,51 26,51 L10.672,51 C10.2080928,51.0001978 9.80523472,51.3194204 9.699,51.771 L8.181,58.229 C8.07476528,58.6805796 7.67190722,58.9998022 7.208,59 L5.278,59 C4.9704347,58.9998385 4.68005271,58.8581535 4.49064511,58.615829 C4.3012375,58.3735044 4.23387671,58.0574999 4.308,57.759 L8.96,39 L13.09,39 L11.29,45.742 C11.2099696,46.0416874 11.2735424,46.3615465 11.4620904,46.6078533 C11.6506385,46.8541601 11.9428122,46.9990249 12.253,47 L26,47 C26.5522847,47 27,46.5522847 27,46 L27,39 L31,39 L31,46 C31,46.5522847 31.4477153,47 32,47 L45.757,47 C46.0677153,46.999955 46.3607563,46.8554807 46.5499944,46.6090402 C46.7392325,46.3625997 46.8031645,46.042196 46.723,45.742 L44.92,39 L49.06,39 L53.694,57.76 C53.767804,58.0585287 53.7001513,58.3744136 53.5105579,58.6165308 C53.3209645,58.858648 53.0305165,59.0000698 52.723,59 Z" id="Shape" fill="#59474E"/><path d="M17.87,6 L18.942,1.742 C19.0588397,1.30446484 19.455133,1.00006563 19.908,1 L21.78,1 C22.0804978,0.999638125 22.3652286,1.13442741 22.5554202,1.36707774 C22.7456118,1.59972807 22.8210998,1.90557335 22.761,2.2 L22,6 L17.87,6 Z" id="Shape" fill="#59474E"/><path d="M27,6 L27,2 C27,1.44771525 27.4477153,1 28,1 L30,1 C30.5522847,1 31,1.44771525 31,2 L31,6 L27,6 Z" id="Shape" fill="#59474E"/><path d="M36,6 L35.24,2.186 C35.1802693,1.8934533 35.2543883,1.58951997 35.4420887,1.35731335 C35.629789,1.12510673 35.9114321,0.988921962 36.21,0.986 L38.084,0.968 C38.5405798,0.963506055 38.9422188,1.26885044 39.06,1.71 L40.13,6 L36,6 Z" id="Shape" fill="#59474E"/><path d="M56,7.267 L56,36.733 C56.0657295,37.9085425 55.1745666,38.9186756 54,39 L4,39 C2.82543335,38.9186756 1.93427047,37.9085425 2,36.733 L2,7.267 C1.93427047,6.09145753 2.82543335,5.0813244 4,5 L54,5 C55.1745666,5.0813244 56.0657295,6.09145753 56,7.267 Z" id="Shape" fill="#B0D3F0"/><path d="M53,7.267 L53,36.733 C53.0912904,37.8765298 52.2522355,38.8834846 51.111,39 L3.889,39 C2.74776448,38.8834846 1.90870955,37.8765298 2,36.733 L2,7.267 C1.90870955,6.1234702 2.74776448,5.11651544 3.889,5 L51.111,5 C52.2522355,5.11651544 53.0912904,6.1234702 53,7.267 Z" id="Shape" fill="#FFFFFF"/><path d="M54,40 L4,40 C2.27159034,39.921602 0.931105967,38.4618146 1,36.733 L1,7.267 C0.931105967,5.53818544 2.27159034,4.07839795 4,4 L54,4 C55.7284097,4.07839795 57.068894,5.53818544 57,7.267 L57,36.733 C57.068894,38.4618146 55.7284097,39.921602 54,40 Z M4,6 C3.38289057,6.08940766 2.94358763,6.64600449 3,7.267 L3,36.733 C2.94358763,37.3539955 3.38289057,37.9105923 4,38 L54,38 C54.6171094,37.9105923 55.0564124,37.3539955 55,36.733 L55,7.267 C55.0564124,6.64600449 54.6171094,6.08940766 54,6 L4,6 Z" id="Shape" fill="#2C3E50"/><path d="M8,36 L6,36 C5.44771525,36 5,35.5522847 5,35 C5,34.4477153 5.44771525,34 6,34 L8,34 C8.55228475,34 9,34.4477153 9,35 C9,35.5522847 8.55228475,36 8,36 Z" id="Shape" fill="#B0D3F0"/><path d="M52,36 L12,36 C11.4477153,36 11,35.5522847 11,35 C11,34.4477153 11.4477153,34 12,34 L52,34 C52.5522847,34 53,34.4477153 53,35 C53,35.5522847 52.5522847,36 52,36 Z" id="Shape" fill="#B0D3F0"/><path d="M52,10 L50,10 C49.4477153,10 49,9.55228475 49,9 C49,8.44771525 49.4477153,8 50,8 L52,8 C52.5522847,8 53,8.44771525 53,9 C53,9.55228475 52.5522847,10 52,10 Z" id="Shape" fill="#B0D3F0"/><path d="M46,10 L6,10 C5.44771525,10 5,9.55228475 5,9 C5,8.44771525 5.44771525,8 6,8 L46,8 C46.5522847,8 47,8.44771525 47,9 C47,9.55228475 46.5522847,10 46,10 Z" id="Shape" fill="#B0D3F0"/></g></g></svg>
